<svg width="664" height="500" viewBox="0 0 664 500" fill="none" xmlns="http://www.w3.org/2000/svg">
<path fill-rule="evenodd" clip-rule="evenodd" d="M53.6471 295.723C58.7592 293.275 63.7993 309.475 63.7993 309.475C72.4395 320.923 84.5358 305.731 83.3118 322.795C81.2237 352.676 117.657 332.156 100.88 363.332C84.1038 394.509 115.713 380.973 105.272 406.101C94.8321 431.23 108.368 461.255 92.672 448.87C92.672 448.87 78.8477 418.486 64.5913 409.125C50.335 399.765 73.1595 388.605 68.6954 375.861C62.2153 357.356 46.5909 358.076 57.8232 338.132C69.1274 318.259 36.4386 303.931 53.7191 295.651L53.6471 295.723Z" fill="url(#paint0_linear)"/>
<path d="M97.6333 437.42C90.7931 432.596 82.8729 399.259 82.3689 379.314C82.1529 369.09 79.1288 364.914 76.4647 361.17C73.9447 357.57 71.7126 354.474 73.0087 347.418C75.4567 333.881 69.0486 327.977 68.9766 327.905L69.6966 327.041C69.9846 327.257 76.6808 333.305 74.0887 347.562C72.8647 354.186 74.8807 356.994 77.3288 360.45C79.9208 364.122 83.2329 368.73 83.4489 379.242C83.9529 400.555 92.0891 432.092 98.2093 436.412L97.5613 437.348L97.6333 437.42Z" fill="white"/>
<path d="M97.9898 441.521C97.1257 437.704 89.4216 404.368 96.5497 400.336C102.814 396.807 102.67 382.911 101.662 369.879C100.798 358.287 115.63 352.886 116.278 352.67L116.638 353.75C116.494 353.822 101.95 359.079 102.742 369.807C103.75 383.199 103.822 397.456 97.0537 401.344C91.6536 404.44 96.6217 431.224 98.9978 441.305L97.9178 441.593L97.9898 441.521Z" fill="white"/>
<path fill-rule="evenodd" clip-rule="evenodd" d="M114.196 429.574L104.043 468.095H81.2909L71.1387 429.574H114.196Z" fill="url(#paint1_linear)"/>
<path fill-rule="evenodd" clip-rule="evenodd" d="M114.194 429.574C114.194 429.574 91.8735 433.75 91.8735 468.095H81.3612L71.209 429.574H114.194Z" fill="url(#paint2_linear)"/>
<path d="M550.603 282.333H496.53V281.324H549.667V237.691H550.603V282.333Z" fill="#78C2FF"/>
<path d="M516.325 203.051H540.446V178.93H516.325V203.051ZM541.31 203.915H515.461V178.066H541.31V203.915Z" fill="#6AAFE8"/>
<path d="M547.351 186.632H604.808V182.024H547.351V186.632ZM605.672 187.496H546.487V181.16H605.672V187.496Z" fill="#6AAFE8"/>
<path d="M516.325 216.023H604.816V211.415H516.325V216.023ZM605.68 216.887H515.461V210.551H605.68V216.887Z" fill="#6AAFE8"/>
<path d="M516.325 228.187H572.055V223.579H516.325V228.187ZM572.919 229.051H515.461V222.715H572.919V229.051Z" fill="#6AAFE8"/>
<path d="M547.351 198.726H585.728V194.118H547.351V198.726ZM586.592 199.59H546.487V193.254H586.592V199.59Z" fill="#6AAFE8"/>
<path d="M506.025 241.938H615.035V165.184H506.025V241.938ZM615.899 242.802H505.161V164.32H615.899V242.802Z" fill="#6AAFE8"/>
<path d="M550.085 232.211C548.645 232.211 547.493 233.363 547.493 234.803C547.493 236.244 548.645 237.396 550.085 237.396C551.525 237.396 552.677 236.244 552.677 234.803C552.677 233.363 551.525 232.211 550.085 232.211ZM550.085 238.332C548.141 238.332 546.557 236.748 546.557 234.803C546.557 232.859 548.141 231.275 550.085 231.275C552.029 231.275 553.613 232.859 553.613 234.803C553.613 236.748 552.029 238.332 550.085 238.332Z" fill="#78C2FF"/>
<path d="M115.92 214.864H178.201C176.977 208.816 171.505 204.28 165.241 204.28C163.801 204.28 162.433 204.496 161.065 204.928L160.705 205.072L160.489 204.784C157.033 199.888 151.417 196.935 145.441 196.935C138.456 196.935 132.12 200.824 128.952 207.088L128.808 207.448L128.448 207.376C127.656 207.16 126.792 207.088 126 207.088C121.248 207.088 117.072 210.328 115.92 214.936V214.864ZM179.353 215.8H114.768L114.912 215.224C115.92 209.896 120.672 206.008 126.072 206.008C126.864 206.008 127.656 206.08 128.376 206.224C131.76 199.816 138.312 195.855 145.513 195.855C151.705 195.855 157.537 198.808 161.137 203.776C162.505 203.344 163.873 203.2 165.241 203.2C172.297 203.2 178.129 208.24 179.209 215.152L179.281 215.728L179.353 215.8Z" fill="#6AAFE8"/>
<path d="M235.156 439.156H248.26C248.837 439.156 249.197 439.588 249.125 440.02L247.828 445.708C247.756 446.068 247.396 446.284 246.964 446.284H233.644C233.068 446.284 232.636 445.852 232.78 445.348L234.292 439.66C234.364 439.3 234.724 439.084 235.156 439.084V439.156Z" fill="white"/>
<path d="M254.303 439.154H264.24L262.872 446.354H252.791L254.303 439.154Z" fill="white"/>
<path d="M269.15 439.154H279.086L278.078 446.354H267.926L269.15 439.154Z" fill="white"/>
<path d="M284.05 439.154H293.986L293.194 446.354H283.114L284.05 439.154Z" fill="white"/>
<path d="M298.949 439.154H308.885L308.381 446.354H298.301L298.949 439.154Z" fill="white"/>
<path d="M313.778 439.154H323.715L323.571 446.354H313.418L313.778 439.154Z" fill="white"/>
<path d="M432.877 439.154H417.973L419.557 446.354H434.749L432.877 439.154Z" fill="white"/>
<path d="M413.001 439.154H403.137L404.433 446.354H414.513L413.001 439.154Z" fill="white"/>
<path d="M398.167 439.154H388.231L389.239 446.354H399.391L398.167 439.154Z" fill="white"/>
<path d="M383.261 439.154H373.324L374.116 446.354H384.197L383.261 439.154Z" fill="white"/>
<path d="M368.353 439.154H358.489L358.921 446.354H369.073L368.353 439.154Z" fill="white"/>
<path d="M353.536 439.154H343.6L343.816 446.354H353.896L353.536 439.154Z" fill="white"/>
<path d="M328.694 439.154H338.63L338.774 446.354H328.694V439.154Z" fill="white"/>
<path d="M230.766 451.741H251.503L250.351 459.157H229.254L230.766 451.741Z" fill="white"/>
<path d="M436.117 451.741H410.485L411.925 459.157H438.061L436.117 451.741Z" fill="white"/>
<path d="M405.363 451.741H395.139L396.291 459.157H406.731L405.363 451.741Z" fill="white"/>
<path d="M389.965 451.741H379.74L380.605 459.157H391.045L389.965 451.741Z" fill="white"/>
<path d="M374.619 451.741H364.395L364.971 459.157H375.411L374.619 451.741Z" fill="white"/>
<path d="M359.221 451.741H348.996L349.284 459.157H359.725L359.221 451.741Z" fill="white"/>
<path d="M227.663 464.995H248.904L247.32 472.339H225.791L227.663 464.995Z" fill="white"/>
<path d="M254.161 464.995H264.745L263.521 472.339H252.721L254.161 464.995Z" fill="white"/>
<path d="M270.08 464.995H349.498L349.858 472.339H268.928L270.08 464.995Z" fill="white"/>
<path d="M354.832 464.995H365.417L365.993 472.339H355.264L354.832 464.995Z" fill="white"/>
<path d="M370.74 464.995H381.325L382.189 472.339H371.388L370.74 464.995Z" fill="white"/>
<path d="M386.649 464.995H397.233L398.385 472.339H387.585L386.649 464.995Z" fill="white"/>
<path d="M402.487 464.995H413.071L414.583 472.339H403.783L402.487 464.995Z" fill="white"/>
<path d="M418.395 464.995H439.564L441.508 472.339H419.907L418.395 464.995Z" fill="white"/>
<path d="M343.873 451.741H333.721V459.157H344.089L343.873 451.741Z" fill="white"/>
<path d="M328.538 451.741H318.242L317.954 459.157H328.394L328.538 451.741Z" fill="white"/>
<path d="M313.144 451.741H302.92L302.344 459.157H312.784L313.144 451.741Z" fill="white"/>
<path d="M297.807 451.741H287.511L286.647 459.157H297.087L297.807 451.741Z" fill="white"/>
<path d="M282.396 451.741H272.172L271.02 459.157H281.46L282.396 451.741Z" fill="white"/>
<path d="M267.059 451.741H256.763L255.323 459.157H265.763L267.059 451.741Z" fill="white"/>
<path d="M235.67 434.611L237.326 428.203H242.15L240.566 434.611H235.67Z" fill="white"/>
<path d="M246.973 428.203H256.621L255.253 434.611H245.461L246.973 428.203Z" fill="white"/>
<path d="M261.435 428.203H271.011L269.931 434.611H260.139L261.435 428.203Z" fill="white"/>
<path d="M275.842 428.203H285.491L284.626 434.611H274.834L275.842 428.203Z" fill="white"/>
<path d="M290.304 428.203H299.952L299.376 434.611H289.512L290.304 428.203Z" fill="white"/>
<path d="M304.782 428.203H314.358L314.07 434.611H304.278L304.782 428.203Z" fill="white"/>
<path d="M319.189 428.203H328.837L328.765 434.611H318.973L319.189 428.203Z" fill="white"/>
<path d="M333.651 428.203H343.299L343.443 434.611H333.651V428.203Z" fill="white"/>
<path d="M348.135 428.203H357.711L358.143 434.611H348.351L348.135 428.203Z" fill="white"/>
<path d="M362.531 428.203H372.18L372.828 434.611H363.036L362.531 428.203Z" fill="white"/>
<path d="M376.999 428.203H386.647L387.511 434.611H377.719L376.999 428.203Z" fill="white"/>
<path d="M391.395 428.203H401.043L402.267 434.611H392.475L391.395 428.203Z" fill="white"/>
<path d="M405.879 428.203H415.527L416.967 434.611H407.175L405.879 428.203Z" fill="white"/>
<path d="M420.346 428.203H429.994L431.65 434.611H421.858L420.346 428.203Z" fill="white"/>
<path fill-rule="evenodd" clip-rule="evenodd" d="M219.252 481.698H448.434V478.53H219.252V481.698Z" fill="url(#paint3_linear)"/>
<path d="M318.745 407.248H350.281V311.414H318.745V407.248Z" fill="#518AFA"/>
<path fill-rule="evenodd" clip-rule="evenodd" d="M207.945 357.564H461.176C466.504 357.564 470.752 353.244 470.752 347.987V175.039C470.752 169.711 466.432 165.463 461.176 165.463H207.945C202.617 165.463 198.369 169.783 198.369 175.039V347.987C198.369 353.316 202.689 357.564 207.945 357.564Z" fill="url(#paint4_linear)"/>
<path fill-rule="evenodd" clip-rule="evenodd" d="M207.949 322.652H460.603V174.832H207.949V322.652Z" fill="url(#paint5_linear)"/>
<path d="M325.74 341.222C325.74 346.046 329.701 350.006 334.525 350.006C339.349 350.006 343.309 346.046 343.309 341.222C343.309 336.398 339.349 332.438 334.525 332.438C329.701 332.438 325.74 336.398 325.74 341.222Z" fill="#696969"/>
<path d="M398.896 67.0476C398.608 70.1437 397.672 89.5842 418.049 100.096C438.425 89.5842 437.489 70.0717 437.201 67.0476C424.529 66.9756 419.417 63.4475 418.049 62.2955C416.753 63.4475 411.569 66.9756 398.896 67.0476ZM418.049 101.176L417.833 101.032C394.936 89.2962 397.96 66.6876 398.032 66.3996L398.104 65.9676H398.536C413.081 65.9676 417.689 61.2875 417.761 61.2155L418.121 60.8555L418.481 61.2155C418.553 61.2875 423.089 65.9676 437.705 65.9676H438.137L438.209 66.3996C438.209 66.6156 441.306 89.2962 418.409 101.032L418.193 101.176H418.049Z" fill="#6AAFE8"/>
<path d="M222.487 189.015H250.783V186.135H222.487V189.015Z" fill="#E0E0E0"/>
<path d="M258.698 210.829H279.146V207.949H258.698V210.829Z" fill="#E0E0E0"/>
<path d="M282.323 210.829H295.859V207.949H282.323V210.829Z" fill="#1487E3"/>
<path d="M310.043 298.458H323.58V295.506H310.043V298.458Z" fill="#1487E3"/>
<path d="M222.838 265.691H236.374V262.811H222.838V265.691Z" fill="#1487E3"/>
<path d="M298.512 210.829H331.273V207.949H298.512V210.829Z" fill="#E0E0E0"/>
<path d="M222.838 254.759H243.863V251.807H222.838V254.759Z" fill="#E0E0E0"/>
<path d="M279.299 276.642H300.396V273.762H279.299V276.642Z" fill="#E0E0E0"/>
<path d="M357.926 298.458H378.951V295.506H357.926V298.458Z" fill="#E0E0E0"/>
<path d="M252.158 276.642H264.975V273.762H252.158V276.642Z" fill="#E0E0E0"/>
<path d="M222.838 276.642H248.255V273.762H222.838V276.642Z" fill="#1487E3"/>
<path d="M222.838 287.506H236.806V284.625H222.838V287.506Z" fill="#E0E0E0"/>
<path d="M256.254 189.015H276.343V186.135H256.254V189.015Z" fill="#78C2FF"/>
<path d="M256.254 221.78H276.343V218.9H256.254V221.78Z" fill="#1487E3"/>
<path d="M246.252 232.644H254.82V229.764H246.252V232.644Z" fill="#E0E0E0"/>
<path d="M237.674 243.736H256.971V240.855H237.674V243.736Z" fill="#78C2FF"/>
<path d="M259.858 243.736H286.498V240.855H259.858V243.736Z" fill="#1487E3"/>
<path d="M344.092 287.506H370.733V284.625H344.092V287.506Z" fill="#1487E3"/>
<path d="M222.838 232.714H242.855V229.834H222.838V232.714Z" fill="#1487E3"/>
<path d="M222.838 243.736H234.718V240.855H222.838V243.736Z" fill="#1487E3"/>
<path d="M258.838 232.714H270.142V229.834H258.838V232.714Z" fill="#FF8761"/>
<path d="M223.137 298.458H234.369V295.506H223.137V298.458Z" fill="#FF8761"/>
<path d="M222.698 210.829H242.786V207.949H222.698V210.829Z" fill="#78C2FF"/>
<path d="M240.487 265.691H260.575V262.811H240.487V265.691Z" fill="#78C2FF"/>
<path d="M240.768 287.506H260.856V284.625H240.768V287.506Z" fill="#78C2FF"/>
<path d="M276.416 287.506H296.505V284.625H276.416V287.506Z" fill="#78C2FF"/>
<path d="M222.698 221.78H251.354V218.9H222.698V221.78Z" fill="#78C2FF"/>
<path d="M356.907 189.015H376.995V186.135H356.907V189.015Z" fill="#78C2FF"/>
<path d="M285.346 298.458H305.434V295.506H285.346V298.458Z" fill="#78C2FF"/>
<path d="M383.274 189.015H396.666V186.135H383.274V189.015Z" fill="#78C2FF"/>
<path d="M428.696 199.966H442.16V197.086H428.696V199.966Z" fill="#78C2FF"/>
<path d="M281.813 189.015H307.373V186.135H281.813V189.015Z" fill="#1487E3"/>
<path d="M383.274 298.458H408.834V295.506H383.274V298.458Z" fill="#1487E3"/>
<path d="M238.606 298.458H264.238V295.506H238.606V298.458Z" fill="#1487E3"/>
<path d="M381.463 199.966H407.096V197.086H381.463V199.966Z" fill="#1487E3"/>
<path d="M350.069 210.829H375.701V207.949H350.069V210.829Z" fill="#1487E3"/>
<path d="M327.903 298.458H353.463V295.506H327.903V298.458Z" fill="#1487E3"/>
<path d="M323.93 276.642H349.491V273.762H323.93V276.642Z" fill="#1487E3"/>
<path d="M268.998 276.642H274.47V273.762H268.998V276.642Z" fill="#FF8761"/>
<path d="M409.696 218.89L382.623 216.226L382.911 213.346L409.984 216.01L409.696 218.89Z" fill="#78C2FF"/>
<path d="M326.32 189.015H351.881V186.135H326.32V189.015Z" fill="#FF8761"/>
<path d="M330.062 232.279L290.461 214.567L291.613 211.975L331.286 229.615L330.062 232.279Z" fill="#1487E3"/>
<path d="M285.346 265.849H300.394V262.969H285.346V265.849Z" fill="#FF8761"/>
<path d="M312.135 189.015H321.495V186.135H312.135V189.015Z" fill="#E0E0E0"/>
<path d="M281.813 221.78H291.173V218.9H281.813V221.78Z" fill="#E0E0E0"/>
<path d="M413.297 199.966H422.657V197.086H413.297V199.966Z" fill="#E0E0E0"/>
<path d="M222.487 199.966H237.175V197.086H222.487V199.966Z" fill="#1487E3"/>
<path d="M261.58 254.827H273.173V251.947H261.58V254.827Z" fill="#1487E3"/>
<path d="M240.768 199.966H245.448V197.086H240.768V199.966Z" fill="#1487E3"/>
<path d="M337.905 199.966H377.001V197.086H337.905V199.966Z" fill="#E0E0E0"/>
<path d="M300.393 287.506H339.49V284.625H300.393V287.506Z" fill="#E0E0E0"/>
<path d="M248.977 199.966H253.801V197.086H248.977V199.966Z" fill="#FF8761"/>
<path d="M321.487 199.966H334.303V197.086H321.487V199.966Z" fill="#1487E3"/>
<path d="M334.301 210.829H347.045V207.949H334.301V210.829Z" fill="#FF8761"/>
<path d="M305.719 276.642H318.535V273.762H305.719V276.642Z" fill="#FF8761"/>
<path d="M268.489 298.458H281.233V295.506H268.489V298.458Z" fill="#FF8761"/>
<path d="M290.883 199.966H318.1V197.086H290.883V199.966Z" fill="#1487E3"/>
<path d="M354.182 276.642H381.471V273.762H354.182V276.642Z" fill="#1487E3"/>
<path d="M265.535 265.849H281.448V262.969H265.535V265.849Z" fill="#1487E3"/>
<path d="M264.463 287.506H272.455V284.625H264.463V287.506Z" fill="#1487E3"/>
<path d="M277.646 199.966H287.007V197.086H277.646V199.966Z" fill="#78C2FF"/>
<path d="M374.274 287.506H383.634V284.625H374.274V287.506Z" fill="#FF8761"/>
<path d="M246.094 210.829H255.454V207.949H246.094V210.829Z" fill="#FF8761"/>
<path d="M247.975 254.827H257.335V251.947H247.975V254.827Z" fill="#FF8761"/>
<path d="M257.766 199.966H274.038V197.086H257.766V199.966Z" fill="#1487E3"/>
<path d="M222.484 263.613H151.418V211.412H152.354V262.677H222.484V263.613Z" fill="#78C2FF"/>
<path d="M366.491 209.385H365.555V140.264H417.54V94.9746H418.476V141.2H366.491V209.385Z" fill="#78C2FF"/>
<path d="M449.931 113.204H441.651V112.196H448.995V104.924H449.931V113.204Z" fill="#6AAFE8"/>
<path d="M394.208 113.204H385.928V104.924H386.936V112.196H394.208V113.204Z" fill="#6AAFE8"/>
<path d="M386.936 57.4638H385.928V49.1836H394.208V50.1196H386.936V57.4638Z" fill="#6AAFE8"/>
<path d="M449.931 57.4638H448.995V50.1196H441.651V49.1836H449.931V57.4638Z" fill="#6AAFE8"/>
<path d="M448.999 92.536H449.935V69.8555H448.999V92.536Z" fill="#6AAFE8"/>
<path d="M385.928 92.536H386.936V69.8555H385.928V92.536Z" fill="#6AAFE8"/>
<path d="M151.853 205.721C150.413 205.721 149.26 206.873 149.26 208.313C149.26 209.753 150.413 210.905 151.853 210.905C153.293 210.905 154.445 209.753 154.445 208.313C154.445 206.873 153.293 205.721 151.853 205.721ZM151.853 211.841C149.909 211.841 148.324 210.257 148.324 208.313C148.324 206.369 149.909 204.785 151.853 204.785C153.797 204.785 155.381 206.369 155.381 208.313C155.381 210.257 153.797 211.841 151.853 211.841Z" fill="#78C2FF"/>
<path d="M417.968 89.3716C416.528 89.3716 415.376 90.5236 415.376 91.9636C415.376 93.4037 416.528 94.5557 417.968 94.5557C419.408 94.5557 420.56 93.4037 420.56 91.9636C420.56 90.5236 419.408 89.3716 417.968 89.3716ZM417.968 95.4917C416.024 95.4917 414.44 93.9077 414.44 91.9636C414.44 90.0196 416.024 88.4355 417.968 88.4355C419.912 88.4355 421.496 90.0196 421.496 91.9636C421.496 93.9077 419.912 95.4917 417.968 95.4917Z" fill="#78C2FF"/>
<path d="M153.356 77.3478H175.749V54.9553H153.356V77.3478ZM176.757 78.2839H152.42V53.9473H176.757V78.2839Z" fill="#A1D4FF"/>
<path d="M164.092 71.9312H165.1V60.627H164.092V71.9312Z" fill="#A1D4FF"/>
<path d="M158.906 66.7485H170.283V65.8125H158.906V66.7485Z" fill="#A1D4FF"/>
<path d="M513.954 106.715H546.787V83.8186H513.954V106.715ZM547.795 107.651H513.018V82.8105H547.795V107.651Z" fill="#A1D4FF"/>
<path d="M530.367 97.8555L513.159 83.6712L513.735 82.9512L530.367 96.6315L547 82.9512L547.576 83.6712L530.367 97.8555Z" fill="#A1D4FF"/>
<path d="M546.92 107.516L534.463 94.3394L535.183 93.6914L547.64 106.868L546.92 107.516Z" fill="#A1D4FF"/>
<path d="M513.808 107.516L513.088 106.868L525.617 93.6914L526.337 94.3394L513.808 107.516Z" fill="#A1D4FF"/>
<path d="M122.467 272.603C121.819 272.603 121.171 272.891 120.739 273.467C120.379 273.899 120.307 274.475 120.379 275.051C120.451 275.627 120.811 276.131 121.243 276.419C121.675 276.779 122.251 276.851 122.827 276.779C123.403 276.707 123.907 276.347 124.195 275.915C124.915 274.979 124.627 273.611 123.691 272.963C123.331 272.675 122.899 272.531 122.467 272.531V272.603ZM122.467 277.571C121.891 277.571 121.315 277.355 120.811 277.067C119.515 276.131 119.227 274.331 120.163 273.107C121.099 271.811 122.899 271.523 124.123 272.459C125.419 273.395 125.707 275.195 124.771 276.419C124.339 277.067 123.691 277.427 122.899 277.571C122.755 277.571 122.611 277.643 122.395 277.643L122.467 277.571ZM120.667 278.795L120.883 278.867C121.243 279.011 121.675 279.083 122.107 279.155H122.323L122.611 279.947L124.051 279.731V278.867L124.267 278.795C124.627 278.651 124.987 278.435 125.275 278.147L125.419 278.003L126.211 278.363L127.075 277.211L126.499 276.563L126.571 276.347C126.715 275.987 126.787 275.555 126.859 275.123V274.907L127.651 274.619L127.435 273.179H126.571L126.499 272.963C126.355 272.603 126.139 272.243 125.851 271.883L125.707 271.739L126.067 270.947L124.915 270.083L124.267 270.659L124.051 270.587C123.691 270.443 123.259 270.371 122.827 270.299H122.611L122.323 269.507L120.883 269.723V270.587L120.667 270.659C120.307 270.803 119.947 271.019 119.659 271.307L119.515 271.451L118.723 271.091L117.859 272.243L118.435 272.891L118.363 273.107C118.219 273.467 118.147 273.899 118.075 274.331V274.547L117.282 274.835L117.499 276.275H118.363L118.435 276.491C118.579 276.851 118.795 277.211 119.083 277.571L119.227 277.715L118.867 278.507L120.019 279.371L120.667 278.795ZM122.179 280.811L121.819 279.875C121.459 279.803 121.171 279.731 120.883 279.659L120.163 280.379L118.003 278.867L118.435 277.931C118.219 277.643 118.075 277.427 117.931 277.067H116.922L116.49 274.475L117.427 274.115C117.499 273.755 117.571 273.467 117.643 273.179L116.922 272.459L118.435 270.299L119.371 270.731C119.659 270.515 119.875 270.371 120.235 270.227V269.219L122.827 268.787L123.187 269.723C123.547 269.795 123.835 269.867 124.123 269.939L124.843 269.219L127.003 270.731L126.571 271.667C126.787 271.955 126.931 272.171 127.075 272.531H128.083L128.515 275.123L127.579 275.483C127.507 275.843 127.435 276.131 127.363 276.419L128.083 277.139L126.571 279.299L125.635 278.867C125.347 279.083 125.131 279.227 124.771 279.371V280.379L122.179 280.811Z" fill="#A1D4FF"/>
<path d="M102.533 264.974C102.245 264.974 101.957 264.974 101.669 265.046C100.301 265.262 99.0766 266.054 98.2126 267.206C97.4206 268.358 97.0606 269.726 97.2766 271.166C97.4926 272.534 98.2846 273.758 99.4366 274.622C101.813 276.278 105.125 275.774 106.781 273.398C107.573 272.246 107.933 270.878 107.717 269.438C107.501 268.07 106.709 266.846 105.557 265.982C104.621 265.334 103.613 264.974 102.533 264.974ZM102.533 276.494C101.309 276.494 100.013 276.134 98.9326 275.342C97.5646 274.406 96.7005 272.966 96.4125 271.31C96.1245 269.654 96.4845 267.998 97.4926 266.63C99.5086 263.822 103.397 263.174 106.205 265.19C109.013 267.206 109.661 271.094 107.645 273.902C106.421 275.63 104.477 276.494 102.533 276.494ZM98.5006 280.022L98.7886 280.094C99.7246 280.454 100.661 280.67 101.669 280.742H101.957L102.677 282.686L106.565 282.038L106.637 279.95L106.925 279.806C107.861 279.374 108.653 278.87 109.445 278.222L109.661 278.006L111.533 278.87L113.837 275.702L112.397 274.19L112.541 273.902C112.901 272.966 113.117 272.03 113.189 271.022V270.734L115.133 270.014L114.485 266.126L112.397 266.054L112.253 265.766C111.821 264.83 111.317 264.038 110.669 263.246L110.453 263.03L111.317 261.157L108.149 258.853L106.637 260.293L106.349 260.149C105.413 259.789 104.477 259.573 103.469 259.501H103.181L102.461 257.557L98.5726 258.205L98.5006 260.293L98.2126 260.437C97.2766 260.869 96.4845 261.373 95.6925 262.021L95.4765 262.237L93.6045 261.373L91.3004 264.542L92.7404 266.054L92.5964 266.342C92.2364 267.278 92.0204 268.214 91.9484 269.222V269.51L90.0044 270.23L90.6524 274.118L92.7404 274.19L92.8845 274.478C93.3165 275.414 93.8205 276.206 94.4685 276.998L94.6845 277.214L93.8205 279.086L96.9886 281.39L98.5006 279.95V280.022ZM102.101 283.838L101.309 281.75C100.445 281.678 99.5806 281.462 98.7886 281.174L97.1326 282.686L92.6684 279.518L93.6045 277.43C93.0285 276.782 92.5964 275.99 92.2364 275.198L90.0044 275.126L89.0684 269.726L91.1564 268.934C91.2284 268.07 91.4444 267.206 91.7324 266.414L90.2204 264.758L93.3885 260.293L95.4765 261.229C96.1245 260.653 96.9166 260.221 97.7086 259.861L97.7806 257.629L103.181 256.693L103.973 258.781C104.837 258.853 105.701 259.069 106.493 259.357L108.149 257.845L112.613 261.013L111.677 263.102C112.253 263.75 112.685 264.542 113.045 265.334L115.277 265.406L116.213 270.806L114.125 271.598C114.053 272.462 113.837 273.326 113.549 274.118L115.061 275.774L111.893 280.238L109.805 279.302C109.157 279.878 108.365 280.31 107.573 280.67L107.501 282.902L102.101 283.838Z" fill="#A1D4FF"/>
<path d="M308.673 122.707C300.104 122.707 293.192 115.723 293.192 107.227C293.192 98.6588 300.176 91.7466 308.673 91.7466C317.241 91.7466 324.153 98.7308 324.153 107.227H323.217C323.217 99.2348 316.665 92.6826 308.673 92.6826C300.68 92.6826 294.128 99.2348 294.128 107.227C294.128 115.219 300.68 121.771 308.673 121.771V122.707ZM308.673 125.227C298.736 125.227 290.672 117.163 290.672 107.227H291.608C291.608 116.659 299.24 124.291 308.673 124.291C318.105 124.291 325.737 116.659 325.737 107.227C325.737 97.7948 318.105 90.1626 308.673 90.1626V89.2266C318.609 89.2266 326.673 97.2908 326.673 107.227C326.673 117.163 318.609 125.227 308.673 125.227Z" fill="#78C2FF"/>
<path d="M306.506 113.194L299.953 106.642L300.673 105.994L306.506 111.826L316.73 101.602L317.378 102.25L306.506 113.194Z" fill="#78C2FF"/>
<path d="M457.647 357.216C457.647 357.216 458.511 360.672 458.655 361.176C458.799 361.68 464.199 360.24 464.199 360.24V355.992C464.199 355.992 458.295 356.568 457.647 357.144V357.216Z" fill="#5C544D"/>
<path d="M458.509 360.741C458.509 360.741 456.997 363.045 455.413 364.125C453.829 365.205 447.709 366.645 446.773 367.725C446.125 368.517 445.261 371.397 455.053 370.101C462.037 369.165 465.493 369.381 466.141 368.157C466.789 366.933 464.125 359.877 464.125 359.877C464.125 359.877 462.613 360.669 458.509 360.741Z" fill="#3C4145"/>
<path d="M456.491 455.561L436.834 255.468L439.282 255.252L458.939 455.345L456.491 455.561Z" fill="#F0C141"/>
<path d="M496.516 451.676L476.86 251.583L479.308 251.367L498.964 451.46L496.516 451.676Z" fill="#F0C141"/>
<path d="M438.633 261.238L438.417 258.718L478.449 254.83L478.665 257.35L438.633 261.238Z" fill="#F0C141"/>
<path d="M440.443 279.817L440.227 277.369L480.26 273.48L480.476 275.929L440.443 279.817Z" fill="#F0C141"/>
<path d="M442.236 298.451L442.02 295.931L482.053 292.043L482.269 294.563L442.236 298.451Z" fill="#F0C141"/>
<path d="M444.101 317.03L443.813 314.581L483.846 310.693L484.134 313.141L444.101 317.03Z" fill="#F0C141"/>
<path d="M445.911 335.682L445.623 333.162L485.656 329.273L485.944 331.793L445.911 335.682Z" fill="#F0C141"/>
<path d="M447.705 354.26L447.417 351.812L487.45 347.924L487.738 350.372L447.705 354.26Z" fill="#F0C141"/>
<path d="M449.515 372.91L449.227 370.462L489.26 366.574L489.548 369.022L449.515 372.91Z" fill="#F0C141"/>
<path d="M451.306 391.49L451.09 389.042L491.123 385.154L491.339 387.602L451.306 391.49Z" fill="#F0C141"/>
<path d="M453.099 410.124L452.883 407.676L492.916 403.788L493.132 406.236L453.099 410.124Z" fill="#F0C141"/>
<path d="M454.91 428.704L454.694 426.256L494.727 422.368L494.943 424.888L454.91 428.704Z" fill="#F0C141"/>
<path d="M456.703 447.354L456.487 444.906L496.52 441.018L496.736 443.466L456.703 447.354Z" fill="#F0C141"/>
<path d="M450.947 284.41C450.947 284.41 446.987 299.026 445.979 304.282C445.043 308.818 443.243 320.986 443.027 323.866C442.739 326.747 454.691 354.683 455.915 359.723L466.788 357.995C466.788 357.995 455.339 328.907 458.363 322.426C462.828 312.778 463.404 313.066 466.86 305.146C470.388 297.226 478.38 297.01 480.54 282.321C480.54 282.321 453.971 279.657 451.091 284.338L450.947 284.41Z" fill="#3C4145"/>
<path d="M470.238 213.273C470.238 213.273 463.037 210.609 459.725 216.081C456.413 221.554 456.701 232.498 460.373 233.866C463.973 235.234 469.446 234.514 471.318 231.058C473.19 227.602 474.846 222.706 474.774 219.394C474.702 216.081 472.182 214.209 470.238 213.273Z" fill="#EEA886"/>
<path d="M461.538 233.513C461.538 233.513 461.826 235.385 461.322 236.321C460.818 237.257 470.394 237.257 470.394 237.257C470.394 237.257 471.186 232.217 472.626 227.896C474.067 223.648 461.538 233.441 461.538 233.441V233.513Z" fill="#EEA886"/>
<path d="M472.622 227.966C472.622 227.966 471.974 229.046 469.31 228.614C466.646 228.182 463.334 224.654 462.254 224.222C461.102 223.862 461.102 223.142 461.102 223.142L460.382 224.15L459.158 224.222C459.158 224.222 460.238 221.054 458.582 219.686C456.925 218.39 460.31 209.318 468.878 212.342C468.878 212.342 475.502 214.142 475.286 217.958C475.07 221.702 474.062 226.022 472.622 227.894V227.966Z" fill="#3A3F47"/>
<path d="M461.244 221.846C461.388 221.198 462.972 219.398 463.62 221.342C464.268 223.286 462.684 225.878 461.82 225.662C460.956 225.446 460.884 223.43 461.244 221.846Z" fill="#EEA886"/>
<path d="M488.742 261.085C488.67 262.021 487.59 263.029 486.87 263.533C486.366 263.821 485.862 264.037 485.214 264.037H484.782L477.293 264.325C477.293 264.325 471.749 246.325 482.19 239.484C482.478 239.484 489.462 252.373 488.742 261.013V261.085Z" fill="#518AFA"/>
<path d="M466.146 368.155C465.498 369.38 462.042 369.164 455.058 370.1C453.114 370.388 451.674 370.46 450.45 370.46L450.018 366.283C452.034 365.563 454.41 364.843 455.346 364.195C456.93 363.115 458.442 360.811 458.442 360.811C462.618 360.811 464.058 359.947 464.058 359.947C464.058 359.947 466.65 367.003 466.074 368.227L466.146 368.155Z" fill="#3C4145"/>
<path d="M461.528 235.82C461.528 235.82 467.432 234.452 470.672 235.604L471.176 236.036C471.176 236.036 472.184 237.98 468.368 238.124C464.552 238.268 458.648 238.556 461.456 235.82H461.528Z" fill="#FFD255"/>
<path d="M484.506 373.336C484.506 373.336 485.37 376.792 485.514 377.296C485.658 377.8 491.058 376.36 491.058 376.36V372.112C491.058 372.112 485.154 372.688 484.506 373.264V373.336Z" fill="#5C544D"/>
<path d="M480.388 282.48C480.388 282.48 482.332 290.617 482.98 298.825C483.556 306.385 484.492 314.665 485.284 322.513C486.148 331.298 488.668 345.554 488.74 350.234C488.884 354.914 492.844 375.507 492.844 375.507L482.692 376.659C482.692 376.659 476.14 340.37 474.556 336.626C472.971 332.882 465.267 306.457 465.051 303.505C464.763 300.553 480.388 282.552 480.388 282.552V282.48Z" fill="#3C4145"/>
<path d="M485.368 376.861C485.368 376.861 483.856 379.165 482.272 380.245C480.688 381.325 474.568 382.765 473.632 383.845C472.984 384.637 472.12 387.517 481.912 386.221C488.896 385.285 492.352 385.501 493 384.277C493.649 383.053 490.984 375.997 490.984 375.997C490.984 375.997 489.472 376.789 485.368 376.861Z" fill="#3C4145"/>
<path d="M448.856 302.699C447.992 302.554 451.016 276.85 450.8 275.266C450.656 274.186 450.656 265.834 450.728 260.649L449.792 255.393C449.288 255.033 448.568 254.601 447.704 254.097C446.408 253.377 444.752 252.513 442.952 251.577C443.168 250.353 443.312 249.345 443.384 248.769C443.816 244.161 446.912 241.713 448.712 240.633C449.432 240.201 449.936 240.057 449.936 240.057C450.584 239.769 451.232 239.481 451.88 239.265C456.128 237.537 461.528 235.881 461.528 235.881H470.168C470.168 235.881 476.793 237.177 480.681 238.833C481.185 239.049 481.689 239.337 482.121 239.625L480.969 264.322C480.465 267.778 479.889 271.882 479.673 274.762C479.601 275.914 480.969 282.25 481.617 288.01L484.065 301.834C484.065 301.834 482.625 307.595 448.856 302.771V302.699Z" fill="#518AFA"/>
<path d="M404.649 222.562C404.649 222.562 405.153 223.21 405.513 223.354C405.513 223.354 406.161 223.642 406.665 223.786C406.809 223.858 406.953 223.93 407.025 223.93C407.385 224.146 408.033 224.65 408.969 224.938C409.905 225.226 414.081 226.162 414.081 226.162L415.089 223.714L415.809 221.698C415.809 221.698 411.921 216.658 411.129 216.298C411.057 216.298 410.985 216.226 410.913 216.226C410.193 216.01 409.545 216.154 409.113 216.082C408.969 216.082 407.457 215.866 407.169 216.226C406.737 216.658 406.593 217.162 406.665 217.522C406.665 217.522 405.801 218.386 405.801 219.178C405.801 219.178 405.009 219.97 405.225 220.978C405.225 220.978 404.505 221.842 404.793 222.49L404.649 222.562Z" fill="#EEA886"/>
<path d="M449.515 255.188C448.579 254.54 447.283 253.748 442.963 251.588C434.899 247.556 424.963 240.212 423.091 239.204C420.211 237.548 410.994 226.315 410.994 226.315C411.498 224.659 415.819 221.203 415.819 221.203C415.819 221.203 429.787 234.379 432.811 236.035C435.403 237.404 448.363 238.844 451.963 239.204C452.539 239.276 452.899 239.276 452.899 239.276C456.644 244.316 451.675 256.484 449.587 255.188H449.515Z" fill="#518AFA"/>
<path d="M186.123 159.345C186.123 159.345 183.675 154.809 182.235 153.153C180.795 151.497 176.187 150.273 176.763 148.185C177.411 146.096 183.675 147.032 185.403 149.049C187.131 151.065 192.387 151.785 192.603 152.649C192.819 153.513 190.803 158.265 189.651 158.985C188.499 159.777 186.123 159.273 186.123 159.273V159.345Z" fill="#6A75BA"/>
<path d="M175.616 163.242C175.616 163.242 171.584 160.074 169.64 159.138C167.696 158.202 162.944 158.922 162.656 156.762C162.44 154.602 168.488 152.946 170.936 154.098C173.312 155.322 178.424 153.882 178.928 154.602C179.432 155.322 179.432 160.434 178.712 161.586C177.992 162.738 175.544 163.242 175.544 163.242H175.616Z" fill="#545D94"/>
<path d="M184.538 171.516C184.538 171.516 186.266 159.491 186.194 157.403C186.194 156.827 189.794 157.043 189.65 158.195C189.29 160.715 190.946 170.364 190.658 172.092C190.37 173.892 184.394 172.596 184.538 171.516Z" fill="#EEA886"/>
<path d="M179.067 174.98C179.067 174.98 175.755 163.316 175.035 161.372C174.675 160.508 178.059 159.14 178.491 160.724C179.211 163.172 184.539 171.38 184.971 173.108C185.403 174.836 179.427 176.06 179.067 174.98Z" fill="#EEA886"/>
<path d="M181.292 183.115C181.292 183.115 177.764 171.163 177.188 169.939L182.732 166.482C182.732 166.482 185.324 174.115 185.684 175.987C186.044 177.859 181.22 183.115 181.22 183.115H181.292Z" fill="#207CD6"/>
<path d="M280.093 151.576C280.093 151.576 274.692 152.944 272.172 157.048C269.58 161.152 267.42 165.833 262.596 167.921C257.772 170.081 257.772 175.553 258.132 176.417C258.492 177.281 273.324 193.913 276.565 194.561C279.805 195.209 285.853 194.777 285.205 190.457C284.557 186.209 278.221 176.993 281.749 172.313C285.277 167.705 286.213 163.384 286.213 163.384L280.165 151.576H280.093Z" fill="#2E334D"/>
<path d="M279.145 171.443C279.145 171.443 279.001 171.371 278.713 171.371C278.425 171.371 277.993 171.371 277.417 171.515C277.273 171.587 277.129 171.659 276.913 171.731C275.617 172.451 272.593 174.539 272.161 174.611C271.657 174.683 272.089 167.627 272.089 167.627C272.089 167.627 273.673 164.747 273.889 162.875C274.105 161.003 279.073 171.443 279.073 171.443H279.145Z" fill="#EEA886"/>
<path d="M241.279 178.87C241.279 178.87 235.375 174.694 228.391 175.99C221.479 177.286 220.687 180.527 218.311 180.671C215.935 180.815 207.943 180.166 201.462 182.039C194.91 183.911 189.438 184.127 188.646 183.623C187.926 183.047 192.75 172.174 192.75 170.662L184.686 168.574C184.686 168.574 182.382 178.222 181.446 180.382C180.51 182.687 178.638 187.079 181.23 190.895C183.894 194.711 191.31 192.983 195.774 193.775C200.238 194.567 220.399 194.063 223.855 193.847C227.671 193.631 239.191 193.127 239.191 193.127L241.207 178.87H241.279Z" fill="#207CD6"/>
<path d="M289.872 157.338C289.872 157.338 290.232 163.171 288.936 164.971C288.432 165.691 288.072 166.051 287.856 166.267C287.496 166.555 287.28 166.915 287.136 167.347C286.704 168.499 286.488 170.083 286.2 170.371C285.84 170.731 284.832 169.795 284.472 169.795C284.112 169.795 280.512 172.891 279.72 172.243C278.856 171.595 273.672 166.339 274.104 162.739C274.536 159.138 276.12 153.738 281.952 153.738C287.784 153.738 289.44 155.898 289.944 157.338H289.872Z" fill="#EEA886"/>
<path d="M272.174 185.269C272.03 185.485 269.942 188.941 267.566 190.957C266.558 191.749 265.55 192.397 264.686 192.397C264.398 192.397 264.11 192.397 263.894 192.397C261.158 192.469 259.142 192.901 255.47 193.045C251.654 193.261 242.437 192.685 242.221 192.685C241.933 192.685 239.269 193.189 239.269 193.189C238.333 192.037 240.853 178.933 241.285 178.933C241.789 178.861 244.813 180.013 247.766 179.581C250.718 179.077 251.87 178.861 256.19 173.749C260.51 168.637 264.902 167.341 266.702 167.773C268.574 168.205 272.174 167.773 272.174 167.773C272.174 167.773 272.318 185.053 272.174 185.413V185.269Z" fill="#FFC955"/>
<path d="M287.437 161.505C287.437 161.505 288.517 164.313 289.093 164.745C289.093 164.745 291.181 162.513 289.813 157.041C288.445 151.569 283.332 151.065 280.092 151.569C275.988 152.289 271.884 166.113 272.1 167.482C272.316 168.85 276.924 160.281 280.956 161.001C284.989 161.721 284.989 161.937 287.437 161.505Z" fill="#2E334D"/>
<path d="M278.717 171.373C278.429 171.373 277.997 171.373 277.421 171.517C277.277 171.589 277.133 171.661 276.917 171.733C275.981 170.293 275.117 166.765 275.045 166.693C275.693 168.565 278.645 171.373 278.645 171.373H278.717Z" fill="#A77860"/>
<path d="M267.555 190.96C266.547 191.752 265.539 192.4 264.675 192.4C264.387 192.4 264.099 192.4 263.883 192.4L264.963 181.6L267.555 191.032V190.96Z" fill="#C29941"/>
<path d="M288.724 209.602L286.131 211.978C283.899 210.754 278.211 206.722 277.131 205.786C275.979 204.85 268.419 198.442 267.339 197.002C266.259 195.562 264.963 180.585 265.107 179.865C265.251 179.217 271.731 178.857 272.451 180.441C272.451 180.441 272.811 189.01 272.955 190.378C273.099 191.818 273.675 193.114 274.683 194.266C276.051 195.922 278.931 199.81 281.739 202.906C282.387 203.626 287.932 208.738 288.796 209.53L288.724 209.602Z" fill="#EEA886"/>
<path d="M272.96 180.599C272.96 180.599 273.392 169.223 269.648 169.367C264.968 169.511 264.248 175.271 264.896 181.463C264.896 181.463 271.88 181.535 272.96 180.599Z" fill="#FFC955"/>
<path d="M287.496 208.452C287.496 208.452 287.856 209.028 288.36 209.172C289.224 209.46 290.52 208.884 291.168 210.036C291.816 211.188 288.72 213.996 287.928 214.212C287.136 214.356 285.768 213.132 284.76 210.54C283.752 208.02 287.568 208.452 287.568 208.452H287.496Z" fill="#EEA886"/>
<path d="M290.894 209.672C290.894 209.672 292.478 210.896 294.062 212.408C295.43 213.776 296.87 215.504 296.51 215.864C296.006 216.296 295.07 214.784 293.63 213.56C292.262 212.408 292.334 212.84 292.334 212.84C292.334 212.84 292.334 212.696 293.558 214.208C294.854 215.864 296.222 217.808 295.862 218.024C295.574 218.168 295.574 218.24 294.998 217.736C295.286 218.096 295.214 218.24 295.07 218.312C294.35 218.96 292.046 216.8 291.11 216.008C291.83 216.656 292.262 217.232 291.542 217.304C290.75 217.376 287.582 214.28 286.358 213.272C284.99 212.192 290.966 209.672 290.966 209.672H290.894Z" fill="#EEA886"/>
<path d="M243.943 179.363C243.943 179.363 242.719 188.291 243.295 192.683C243.295 192.683 243.943 193.187 245.239 192.755C245.239 192.755 245.527 182.963 246.319 179.507C246.319 179.507 245.887 179.219 243.943 179.291V179.363Z" fill="#E0E0E0"/>
<path d="M244.231 186.133H245.167V18.3691H244.231V186.133Z" fill="#E0E0E0"/>
<path d="M162.152 431.153C162.152 431.153 161.648 434.609 161.576 435.113C161.504 435.617 156.104 434.825 156.104 434.825L155.672 430.721C155.672 430.721 161.432 430.649 162.08 431.153H162.152Z" fill="#5C544D"/>
<path d="M161.638 434.679C161.638 434.679 163.366 436.767 165.023 437.631C166.679 438.567 169.271 438.855 170.279 439.791C170.999 440.439 172.871 443.391 165.959 443.319C159.118 443.247 155.806 443.751 155.086 442.599C154.366 441.519 156.166 434.391 156.166 434.391C156.166 434.391 157.822 434.967 161.71 434.607L161.638 434.679Z" fill="#3C4145"/>
<path d="M200.736 431.153C200.736 431.153 200.232 434.609 200.16 435.113C200.088 435.617 194.688 434.825 194.688 434.825L194.256 430.721C194.256 430.721 200.016 430.649 200.664 431.153H200.736Z" fill="#5C544D"/>
<path d="M200.24 434.677C200.24 434.677 201.968 436.765 203.624 437.629C205.28 438.566 211.328 439.286 212.336 440.222C213.056 440.87 214.208 443.606 204.56 443.39C197.72 443.174 194.408 443.822 193.688 442.67C192.968 441.59 194.768 434.461 194.768 434.461C194.768 434.461 196.28 435.109 200.312 434.677H200.24Z" fill="#3C4145"/>
<path d="M164.099 342.531C164.099 342.531 161.218 351.027 161.578 358.371C161.938 365.715 160.066 373.779 159.346 381.412C158.482 389.98 155.026 410.212 154.882 414.749C154.738 419.357 155.458 433.901 155.458 433.901L162.371 434.045C162.371 434.045 168.203 398.62 169.715 395.02C171.227 391.42 178.715 365.643 179.003 362.763C179.291 359.883 164.099 342.387 164.099 342.387V342.531Z" fill="#33373B"/>
<path d="M193.253 344.027C193.253 344.027 197.069 364.116 197.573 368.652C198.077 373.116 198.437 390.396 198.653 393.204C198.941 396.012 200.309 429.925 201.677 434.101H192.821C192.821 434.101 185.981 409.405 185.981 397.74C185.981 386.076 180.724 372.324 177.34 364.62C173.956 356.915 166.18 356.699 164.092 342.443C164.092 342.443 190.445 339.419 193.325 343.955L193.253 344.027Z" fill="#3C4145"/>
<path d="M175.183 275.271C175.183 275.271 182.168 272.679 185.408 278.007C188.648 283.335 188.36 293.991 184.832 295.287C181.304 296.584 175.975 295.936 174.175 292.551C172.375 289.239 170.719 284.415 170.791 281.175C170.863 277.935 173.311 276.135 175.183 275.271Z" fill="#EEA886"/>
<path d="M183.674 295C183.674 295 183.386 296.8 183.89 297.736C184.394 298.672 175.106 298.672 175.106 298.672C175.106 298.672 174.386 293.775 172.946 289.599C171.506 285.423 183.746 295 183.746 295H183.674Z" fill="#EEA886"/>
<path d="M172.879 289.606C172.879 289.606 173.527 290.686 176.119 290.254C178.711 289.822 181.951 286.366 183.031 286.006C184.111 285.646 184.111 284.998 184.111 284.998L184.759 286.006L185.911 286.078C185.911 286.078 184.831 282.982 186.415 281.686C187.999 280.39 184.759 271.606 176.407 274.558C176.407 274.558 169.999 276.358 170.215 279.958C170.431 283.63 171.367 287.806 172.807 289.606H172.879Z" fill="#FCCCA2"/>
<path d="M184.392 297.59C184.392 297.59 184.392 295.862 183.6 295.718C182.808 295.574 174.96 294.782 174.024 295.142V297.158C174.024 297.158 175.896 298.31 184.464 297.59H184.392Z" fill="#E2D2CA"/>
<path d="M183.891 283.619C183.747 282.971 182.163 281.243 181.587 283.115C181.011 284.987 182.523 287.507 183.315 287.291C184.179 287.075 184.251 285.131 183.891 283.619Z" fill="#EEA886"/>
<path d="M184.396 297.592C184.396 297.592 188.716 299.176 193.684 301.264C193.684 301.264 199.444 303.424 200.02 309.76C200.38 313.144 203.908 331.001 204.628 332.513C205.276 334.025 213.269 358.289 213.557 358.793C213.845 359.297 207.076 362.106 206.644 361.89C206.212 361.673 198.94 339.713 198.22 338.129C198.22 338.129 194.044 324.953 193.972 323.009C193.972 323.009 193.828 328.625 193.612 330.137C193.396 331.721 197.356 362.106 197.212 362.97C197.068 363.834 179.356 364.842 172.228 364.122C165.099 363.33 159.411 361.673 159.411 361.673C159.411 361.673 165.027 337.625 164.811 334.961C164.451 329.129 162.507 318.256 162.507 318.256L156.675 329.201L164.091 348.281L162.363 354.113C162.363 354.113 148.611 333.305 148.107 331.361C147.675 329.489 148.755 327.041 149.475 325.457C150.195 323.873 154.947 311.992 156.099 310.264C157.251 308.608 159.123 301.84 163.659 299.968C167.475 298.384 173.884 297.088 173.884 297.088L184.324 297.52L184.396 297.592Z" fill="#495054"/>
<path d="M193.901 369.816L226.374 361.464L220.541 338.783L188.069 347.135L193.901 369.816Z" fill="#D6D6D6"/>
<path d="M216.367 363.762C216.367 363.762 217.303 365.274 217.663 365.706C218.023 366.138 216.799 366.426 216.295 365.994C215.791 365.562 216.367 363.834 216.367 363.834V363.762Z" fill="#C98462"/>
<path d="M209.605 368.879C209.605 368.879 209.029 368.303 208.957 367.943C208.957 367.943 208.813 367.223 208.669 366.791C208.597 366.647 208.597 366.503 208.525 366.431C208.381 366.071 207.949 365.351 207.805 364.487C207.661 363.551 207.229 359.375 207.229 359.375L209.749 358.727L211.765 358.295C211.765 358.295 216.157 362.615 216.373 363.479C216.373 363.551 216.445 363.623 216.445 363.695C216.589 364.415 216.373 365.063 216.373 365.423C216.373 365.567 216.373 367.007 216.013 367.295C215.581 367.655 215.077 367.727 214.645 367.583C214.645 367.583 213.709 368.303 212.917 368.231C212.917 368.231 212.053 368.879 211.117 368.591C211.117 368.591 210.181 369.167 209.605 368.807V368.879Z" fill="#DE9D7D"/>
<path d="M199.811 342.59C199.811 342.59 205.571 360.014 206.651 361.886C206.651 361.886 210.899 361.022 213.563 358.79L207.227 339.926L199.811 342.59Z" fill="#495054"/>
<defs>
<linearGradient id="paint0_linear" x1="36.3814" y1="377.222" x2="117.708" y2="377.222" gradientUnits="userSpaceOnUse">
<stop stop-color="#3076A1"/>
<stop offset="1" stop-color="#639C38"/>
</linearGradient>
<linearGradient id="paint1_linear" x1="71.1631" y1="448.868" x2="114.163" y2="448.868" gradientUnits="userSpaceOnUse">
<stop stop-color="#FF9340"/>
<stop offset="1" stop-color="#FFCE45"/>
</linearGradient>
<linearGradient id="paint2_linear" x1="71.1614" y1="448.868" x2="114.161" y2="448.868" gradientUnits="userSpaceOnUse">
<stop stop-color="#C97332"/>
<stop offset="1" stop-color="#FFCE45"/>
</linearGradient>
<linearGradient id="paint3_linear" x1="219.25" y1="480.107" x2="448.449" y2="480.107" gradientUnits="userSpaceOnUse">
<stop stop-color="#E37E30"/>
<stop offset="1" stop-color="#E8A12E"/>
</linearGradient>
<linearGradient id="paint4_linear" x1="198.344" y1="261.481" x2="470.722" y2="261.481" gradientUnits="userSpaceOnUse">
<stop stop-color="#FF9F55"/>
<stop offset="1" stop-color="#FFD255"/>
</linearGradient>
<linearGradient id="paint5_linear" x1="207.976" y1="248.732" x2="460.614" y2="248.732" gradientUnits="userSpaceOnUse">
<stop stop-color="#404B61"/>
<stop offset="0.690196" stop-color="#38455F"/>
<stop offset="1" stop-color="#2F3E5C"/>
</linearGradient>
</defs>
</svg>
